<svg width="34" height="34" viewBox="0 0 34 34" fill="none" xmlns="http://www.w3.org/2000/svg">
<path d="M2.14276 10.8462L31.8572 10.8462M27.2858 2.23077L23.8572 10.8462M23.8572 10.8462L17 1L10.1428 10.8462M23.8572 10.8462L17 31.7694L10.1428 10.8462M6.71424 2.23077L10.1428 10.8462M1.24418 11.7854L16.0836 32.5132C16.1914 32.6646 16.3302 32.7873 16.4891 32.8717C16.648 32.9561 16.8228 33 17 33C17.1772 33 17.352 32.9561 17.5109 32.8717C17.6698 32.7873 17.8086 32.6646 17.9164 32.5132L32.7558 11.7854C32.9017 11.5808 32.9864 11.3333 32.9985 11.0757C33.0106 10.818 32.9496 10.5625 32.8237 10.3431L27.7901 1.59308C27.6864 1.412 27.5416 1.26246 27.3692 1.15866C27.1968 1.05485 27.0026 1.00024 26.8051 1L7.19494 1C6.99742 1.00024 6.80325 1.05485 6.63085 1.15866C6.45845 1.26246 6.31356 1.412 6.20993 1.59308L1.17632 10.3431C1.05036 10.5625 0.989391 10.818 1.00151 11.0757C1.01363 11.3333 1.09827 11.5808 1.24418 11.7854Z" stroke="#A7EDE7" stroke-width="1.51467" stroke-linecap="round" stroke-linejoin="round"/>
</svg>
