<svg width="34" height="32" viewBox="0 0 34 32" fill="none" xmlns="http://www.w3.org/2000/svg">
<path d="M26.1389 1H7.86532L1.15191 11.4857C1.04127 11.6586 0.988989 11.8589 1.00193 12.0602C1.01488 12.2615 1.09244 12.4544 1.22444 12.6137L16.1574 30.6131C16.2571 30.7336 16.3848 30.831 16.5309 30.8981C16.6769 30.9651 16.8374 31 17 31C17.1626 31 17.3231 30.9651 17.4691 30.8981C17.6152 30.831 17.7429 30.7336 17.8426 30.6131L32.7756 12.6137C32.9076 12.4544 32.9851 12.2615 32.9981 12.0602C33.011 11.8589 32.9587 11.6586 32.8481 11.4857L26.1389 1Z" stroke="#A7EDE7" stroke-width="2"/>
</svg>
