<svg width="36" height="34" viewBox="0 0 36 34" fill="none" xmlns="http://www.w3.org/2000/svg">
<path d="M27.9813 1.46104L27.6863 1L16.3871 32.2508L17.1574 31.6131L16.3877 32.2516L16.3875 32.2513C16.5856 32.4905 16.8351 32.679 17.1136 32.8069C17.3922 32.9348 17.6951 33 18 33C18.3049 33 18.6078 32.9348 18.8864 32.8069C19.1649 32.679 19.4144 32.4905 19.6125 32.2513C19.6127 32.2511 19.6128 32.251 19.6129 32.2508L34.5452 14.2522L34.5454 14.2519C34.8085 13.9346 34.9692 13.5419 34.996 13.1244C35.0229 12.7066 34.9136 12.2956 34.6905 11.9468L34.6904 11.9467L27.9813 1.46104Z" fill="#A7EDE7" stroke="#A7EDE7" stroke-width="2"/>
</svg>
