<?xml version="1.0" encoding="utf-8"?>
<!-- Generator: Adobe Illustrator 27.6.1, SVG Export Plug-In . SVG Version: 6.00 Build 0)  -->
<svg version="1.1" id="Layer_1" xmlns="http://www.w3.org/2000/svg" xmlns:xlink="http://www.w3.org/1999/xlink" x="0px" y="0px"
	 viewBox="0 0 9 16" style="enable-background:new 0 0 9 16;" xml:space="preserve">
<style type="text/css">
	.st0{fill:#FFFFFF;}
</style>
<path class="st0" d="M1.2,0c0.7,0,1.2,0.5,1.2,1.2S1.9,2.5,1.2,2.5S0,1.9,0,1.2S0.5,0,1.2,0z M7.8,0C8.5,0,9,0.5,9,1.2
	S8.5,2.5,7.8,2.5S6.5,1.9,6.5,1.2S7.1,0,7.8,0z M1.2,6.5c0.7,0,1.2,0.5,1.2,1.2S1.9,9,1.2,9S0,8.5,0,7.8S0.5,6.5,1.2,6.5z M7.8,6.5
	C8.5,6.5,9,7.1,9,7.8S8.5,9,7.8,9S6.5,8.5,6.5,7.8S7.1,6.5,7.8,6.5z M1.2,13.1c0.7,0,1.2,0.5,1.2,1.2s-0.5,1.2-1.2,1.2S0,15,0,14.3
	S0.5,13.1,1.2,13.1z M7.8,13.1c0.7,0,1.2,0.5,1.2,1.2s-0.5,1.2-1.2,1.2S6.5,15,6.5,14.3S7.1,13.1,7.8,13.1z"/>
</svg>
